<?xml version="1.0" standalone="no"?>
<!DOCTYPE svg PUBLIC "-//W3C//DTD SVG 20010904//EN"
 "http://www.w3.org/TR/2001/REC-SVG-20010904/DTD/svg10.dtd">
<svg version="1.0" xmlns="http://www.w3.org/2000/svg"
 width="512.000000pt" height="512.000000pt" viewBox="0 0 512.000000 512.000000"
 preserveAspectRatio="xMidYMid meet">
<metadata>
Created by potrace 1.11, written by Peter Selinger 2001-2013
</metadata>
<g transform="translate(0.000000,512.000000) scale(0.100000,-0.100000)"
fill="#000000" stroke="none">
<path d="M1062 4078 l3 -83 80 0 80 0 3 83 3 82 -86 0 -86 0 3 -82z"/>
<path d="M1477 3923 c-4 -3 -7 -50 -7 -104 0 -79 3 -98 16 -103 9 -3 56 -6
105 -6 l89 0 0 110 0 110 -98 0 c-54 0 -102 -3 -105 -7z"/>
<path d="M1880 3535 l0 -135 130 0 130 0 0 135 0 135 -130 0 -130 0 0 -135z"/>
<path d="M1060 3565 l0 -85 85 0 85 0 0 85 0 85 -85 0 -85 0 0 -85z"/>
<path d="M2280 3265 l0 -165 165 0 165 0 0 165 0 165 -165 0 -165 0 0 -165z"/>
<path d="M1470 3308 l0 -108 105 0 105 0 0 104 0 105 -105 3 -105 3 0 -107z"/>
<path d="M2670 3040 l0 -210 188 -2 187 -3 0 -25 0 -25 -187 -3 -188 -2 0
-205 0 -205 188 -2 187 -3 0 -30 0 -30 -187 -3 -188 -2 0 -205 0 -205 205 0
205 0 0 98 0 97 240 -3 240 -3 0 96 0 95 250 0 250 0 0 325 0 325 -250 0 -250
0 0 75 0 75 -240 0 -240 0 0 95 0 95 -205 0 -205 0 0 -210z"/>
<path d="M1880 3030 l0 -130 130 0 130 0 0 130 0 130 -130 0 -130 0 0 -130z"/>
<path d="M1060 3045 l0 -85 85 0 86 0 -3 83 -3 82 -82 3 -83 3 0 -86z"/>
<path d="M2280 2785 l0 -165 165 0 165 0 0 165 0 165 -165 0 -165 0 0 -165z"/>
<path d="M1470 2795 l0 -105 105 0 105 0 0 105 0 105 -105 0 -105 0 0 -105z"/>
<path d="M1880 2525 l0 -136 128 3 127 3 3 133 3 132 -131 0 -130 0 0 -135z"/>
<path d="M1060 2535 l0 -85 85 0 85 0 0 85 0 85 -85 0 -85 0 0 -85z"/>
<path d="M2280 2307 l0 -168 159 2 c130 1 161 4 165 16 3 8 6 83 6 166 l0 152
-165 0 -165 0 0 -168z"/>
<path d="M1470 2285 l0 -105 105 0 105 0 0 105 0 105 -105 0 -105 0 0 -105z"/>
<path d="M1880 2020 l0 -130 130 0 130 0 0 130 0 130 -130 0 -130 0 0 -130z"/>
<path d="M1060 2016 l0 -84 85 -1 85 -1 0 85 0 85 -85 0 -85 0 0 -84z"/>
<path d="M2280 1830 l0 -170 159 0 c136 0 160 2 165 16 3 9 6 85 6 170 l0 154
-165 0 -165 0 0 -170z"/>
<path d="M1470 1775 l0 -105 105 0 105 0 0 105 0 105 -105 0 -105 0 0 -105z"/>
<path d="M1880 1515 l0 -135 130 0 130 0 0 135 0 135 -130 0 -130 0 0 -135z"/>
<path d="M1060 1505 l0 -85 85 0 85 0 0 85 0 85 -85 0 -85 0 0 -85z"/>
<path d="M1470 1255 l0 -105 105 0 105 0 0 105 0 105 -105 0 -105 0 0 -105z"/>
<path d="M1060 985 l0 -85 85 0 85 0 0 85 0 85 -85 0 -85 0 0 -85z"/>
</g>
</svg>
